<svg width="35" height="35" viewBox="0 0 35 35" fill="none" xmlns="http://www.w3.org/2000/svg">
<path fill-rule="evenodd" clip-rule="evenodd" d="M17.5 0C10.9003 0 7.60051 0 5.55025 2.05025C3.5 4.10051 3.5 7.40033 3.5 14V21C3.5 27.5996 3.5 30.8996 5.55025 32.9497C7.60051 35 10.9003 35 17.5 35C24.0996 35 27.3996 35 29.4497 32.9497C31.5 30.8996 31.5 27.5996 31.5 21V14C24.9004 14 21.6004 14 19.5503 11.9498C17.5 9.89949 17.5 6.59967 17.5 0Z" fill="#F1D6CF"/>
<path fill-rule="evenodd" clip-rule="evenodd" d="M17.5002 17.5874C18.225 17.5874 18.8127 18.1751 18.8127 18.8999V21.4376H21.35C22.0749 21.4376 22.6625 22.0251 22.6625 22.7501C22.6625 23.4749 22.0749 24.0626 21.35 24.0626H18.8127V26.5999C18.8127 27.3249 18.225 27.9124 17.5002 27.9124C16.7752 27.9124 16.1876 27.3249 16.1876 26.5999V24.0626H13.65C12.9252 24.0626 12.3375 23.4749 12.3375 22.7501C12.3375 22.0251 12.9252 21.4376 13.65 21.4376H16.1876V18.8999C16.1876 18.1751 16.7752 17.5874 17.5002 17.5874Z" fill="#C2796A"/>
<path d="M20.3 1.45099C20.3 0.771493 21.0023 0.31927 21.6209 0.600452C25.7338 2.46994 29.0299 5.76629 30.8994 9.87909C31.1807 10.4977 30.7285 11.2 30.0489 11.2H24.85C22.3372 11.2 20.3 9.16292 20.3 6.65003V1.45099Z" fill="#C2796A"/>
</svg>
